<?xml version="1.0" standalone="no"?>
<!DOCTYPE svg PUBLIC "-//W3C//DTD SVG 20010904//EN"
 "http://www.w3.org/TR/2001/REC-SVG-20010904/DTD/svg10.dtd">
<svg version="1.0" xmlns="http://www.w3.org/2000/svg"
 width="307.000000pt" height="257.000000pt" viewBox="0 0 307.000000 257.000000"
 preserveAspectRatio="xMidYMid meet">

<g transform="translate(0.000000,257.000000) scale(0.100000,-0.100000)"
fill="#000000" stroke="none">
<path d="M845 2560 c-22 -4 -35 -8 -30 -9 6 -1 3 -6 -5 -11 -13 -8 -13 -10 1
-10 11 0 41 -54 94 -172 44 -95 79 -182 79 -194 1 -28 167 -396 185 -410 10
-8 16 -33 17 -80 1 -38 5 -108 9 -155 l8 -86 -254 -6 c-165 -4 -282 -11 -334
-21 -44 -9 -86 -16 -92 -16 -7 0 -67 73 -134 163 -67 89 -129 168 -137 175
-14 11 -122 18 -122 8 0 -2 20 -86 45 -187 24 -101 43 -183 42 -184 -1 -1 -14
-9 -29 -18 -15 -9 -35 -17 -45 -17 -24 -1 -128 -37 -128 -45 0 -8 104 -44 128
-45 10 0 30 -8 45 -17 15 -9 28 -17 29 -18 1 -1 -18 -83 -42 -184 -25 -101
-45 -185 -45 -187 0 -10 108 -3 122 9 8 6 70 85 137 175 67 89 127 162 134
162 6 0 48 -7 92 -16 52 -10 169 -17 334 -21 l254 -6 -8 -86 c-4 -47 -8 -117
-9 -155 -1 -47 -7 -72 -17 -80 -18 -14 -184 -382 -185 -410 0 -12 -35 -99 -79
-193 -53 -119 -83 -173 -94 -173 -14 0 -14 -2 -1 -10 8 -5 11 -10 5 -11 -5 -1
10 -5 35 -9 37 -6 53 -3 94 17 58 29 33 1 379 437 173 218 286 352 298 354 11
2 27 -2 35 -9 20 -17 162 -24 197 -10 27 10 28 13 25 73 l-3 63 -82 3 c-46 2
-83 5 -83 7 0 10 114 145 122 145 4 0 8 5 8 11 0 7 -10 9 -27 4 -23 -5 -26 -4
-15 7 10 10 111 14 470 19 450 6 459 7 567 33 310 74 310 168 0 242 -108 26
-117 27 -567 33 -359 5 -460 9 -470 19 -11 11 -8 12 15 7 17 -5 27 -3 27 4 0
6 -4 11 -8 11 -8 0 -122 135 -122 145 0 2 37 5 83 7 l82 3 3 63 c3 60 2 63
-25 73 -35 14 -177 7 -197 -10 -8 -7 -24 -11 -35 -9 -12 2 -125 136 -298 354
-346 437 -321 407 -381 438 -28 14 -53 25 -54 25 -2 -1 -21 -5 -43 -9z"/>
</g>
</svg>
